<?xml version="1.0" encoding="utf-8"?>
<!-- Generator: Adobe Illustrator 24.0.2, SVG Export Plug-In . SVG Version: 6.00 Build 0)  -->
<svg version="1.1" id="Capa_1" xmlns="http://www.w3.org/2000/svg" xmlns:xlink="http://www.w3.org/1999/xlink" x="0px" y="0px"
	 viewBox="0 0 35.4 34.7" style="enable-background:new 0 0 35.4 34.7;" xml:space="preserve">
<style type="text/css">
	.st0{fill:#EC5A82;}
	.st1{fill:#FFFFFF;}
</style>
<title>rec_btn_2</title>
<g id="Capa_2_1_">
	<g id="Capa_1-2">
		<path class="st0" d="M3.9,0h27.6c2.2,0,3.9,1.8,3.9,3.9v26.8c0,2.2-1.8,3.9-3.9,3.9H3.9c-2.2,0-3.9-1.8-3.9-3.9V3.9
			C0,1.8,1.8,0,3.9,0z"/>
	</g>
</g>
<path class="st1" d="M14.5,25.5h-2.4c-0.9,0-1.6-0.7-1.6-1.6V10.1c0-0.9,0.7-1.6,1.6-1.6h2.4c0.9,0,1.6,0.7,1.6,1.6v13.7
	C16.1,24.8,15.4,25.5,14.5,25.5z"/>
<path class="st1" d="M23.7,25.5h-2.4c-0.9,0-1.6-0.7-1.6-1.6V10.1c0-0.9,0.7-1.6,1.6-1.6h2.4c0.9,0,1.6,0.7,1.6,1.6v13.7
	C25.3,24.8,24.6,25.5,23.7,25.5z"/>
</svg>
